<?xml version="1.0" encoding="utf-8"?>
<!-- Generator: Adobe Illustrator 19.0.0, SVG Export Plug-In . SVG Version: 6.00 Build 0)  -->
<svg version="1.1" id="Layer_1" xmlns="http://www.w3.org/2000/svg" xmlns:xlink="http://www.w3.org/1999/xlink" x="0px" y="0px"
	 viewBox="0 0 74 40" style="enable-background:new 0 0 74 40;" xml:space="preserve">
<style type="text/css">
	.st0{font-family:'ArialNarrow';}
	.st1{font-size:5px;}
	.st2{fill:none;stroke:#000000;stroke-miterlimit:10;}
</style>
<path id="XMLID_3_" d="M55.5,23.1c-2.2-1.6-9-6.1-18.8-6c-9.5,0.1-16,4.4-18.2,6c0,5.6,0,11.3,0,16.9h37V23.1z"/>
<path id="XMLID_2_" d="M16.5,22c0,2.1,0,4.3,0,6.6L0,21.5L37,0l37,21.5L57.5,29c0-2.5,0-4.8,0-7c-2.3-1.8-10-7.7-21.3-7.4
	C25.9,14.8,18.9,20.1,16.5,22z"/>
<text id="XMLID_1_" transform="matrix(1 0 0 1 3.8332 31.25)" class="st0 st1">@</text>
<line id="XMLID_4_" class="st2" x1="6" y1="25" x2="6" y2="27.8"/>
</svg>
